<?xml version="1.0" encoding="UTF-8"?>
<!DOCTYPE svg PUBLIC "-//W3C//DTD SVG 1.1//EN" "http://www.w3.org/Graphics/SVG/1.1/DTD/svg11.dtd">
<!-- Creator: CorelDRAW -->
<svg xmlns="http://www.w3.org/2000/svg" xml:space="preserve" width="0.282378in" height="0.594831in" version="1.1" style="shape-rendering:geometricPrecision; text-rendering:geometricPrecision; image-rendering:optimizeQuality; fill-rule:evenodd; clip-rule:evenodd"
viewBox="0 0 9.43 19.86"
 xmlns:xlink="http://www.w3.org/1999/xlink"
 xmlns:xodm="http://www.corel.com/coreldraw/odm/2003">
 <defs>
  <style type="text/css">
   <![CDATA[
    .fil0 {fill:#FF9B5F}
    .fil1 {fill:#FFB578}
   ]]>
  </style>
 </defs>
 <g id="Layer_x0020_1">
  <metadata id="CorelCorpID_0Corel-Layer"/>
  <g id="_2715098888944">
   <rect class="fil0" x="1.23" y="13.64" width="5.29" height="6.22"/>
   <path class="fil1" d="M5.67 7.24l-0.49 0 0 -6.49c0,-0.41 -0.34,-0.75 -0.75,-0.75l-0 0c-0.41,0 -0.75,0.34 -0.75,0.75l0 6.49 -0.49 0 0 -5.78c0,-0.41 -0.34,-0.75 -0.75,-0.75l-0 0c-0.41,0 -0.75,0.34 -0.75,0.75l0 5.78 -0.49 0 0 -4.61c0,-0.33 -0.27,-0.61 -0.61,-0.61l-0 0c-0.33,0 -0.61,0.27 -0.61,0.61l0 4.61 0 1.76 0 4.2c0,0.98 0.8,1.78 1.78,1.78l3.61 0c2.1,0 4.04,-0.9 4.04,-2.53l0 -5.24c0,-0.41 -0.34,-0.75 -0.75,-0.75l-0 0c-0.41,0 -0.75,0.34 -0.75,0.75l0 2.8c0.01,0.94 -0.55,1.12 -0.76,1.09l0 -3.51 0 -0.35 0 -5.74c0,-0.41 -0.34,-0.75 -0.75,-0.75l-0 0c-0.41,0 -0.75,0.34 -0.75,0.75l0 5.74z"/>
  </g>
 </g>
</svg>
