<?xml version="1.0" encoding="UTF-8"?>
<!DOCTYPE svg PUBLIC "-//W3C//DTD SVG 1.1//EN" "http://www.w3.org/Graphics/SVG/1.1/DTD/svg11.dtd">
<!-- Creator: CorelDRAW -->
<svg xmlns="http://www.w3.org/2000/svg" xml:space="preserve" width="0.282374in" height="0.572201in" version="1.1" style="shape-rendering:geometricPrecision; text-rendering:geometricPrecision; image-rendering:optimizeQuality; fill-rule:evenodd; clip-rule:evenodd"
viewBox="0 0 8.52 17.27"
 xmlns:xlink="http://www.w3.org/1999/xlink"
 xmlns:xodm="http://www.corel.com/coreldraw/odm/2003">
 <defs>
  <style type="text/css">
   <![CDATA[
    .fil0 {fill:#FF9B5F}
    .fil1 {fill:#FFB578}
   ]]>
  </style>
 </defs>
 <g id="Layer_x0020_1">
  <metadata id="CorelCorpID_0Corel-Layer"/>
  <rect class="fil0" x="1.11" y="11.65" width="4.78" height="5.62"/>
  <path class="fil1" d="M5.13 5.86l-0.44 0 0 -2.24c0,-0.37 -0.3,-0.68 -0.68,-0.68l-0 0c-0.37,0 -0.68,0.3 -0.68,0.68l0 2.24 -0.44 0 0 -1.6c0,-0.37 -0.3,-0.68 -0.68,-0.68l-0 0c-0.37,0 -0.68,0.3 -0.68,0.68l0 1.6 -0.44 0 0 -0.9c0,-0.3 -0.25,-0.55 -0.55,-0.55l-0 0c-0.3,0 -0.55,0.25 -0.55,0.55l0 0.9 0 1.59 0 3.8c0,0.89 0.72,1.61 1.61,1.61l3.26 0c1.9,0 3.65,-0.81 3.65,-2.29l0 -4.74c0,-0.37 -0.3,-0.68 -0.68,-0.68l-0 0c-0.37,0 -0.68,0.3 -0.68,0.68l0 2.53c0.01,0.85 -0.5,1.01 -0.69,0.99l0 -3.18 0 -0.32 0 -5.18c0,-0.37 -0.3,-0.68 -0.68,-0.68l-0 0c-0.37,0 -0.68,0.3 -0.68,0.68l0 5.18z"/>
  <rect class="fil0" x="0" y="4.41" width="1.1" height="4.11" rx="0.55" ry="1.22"/>
  <rect class="fil0" x="1.54" y="3.58" width="1.35" height="4.95" rx="0.68" ry="1.47"/>
  <rect class="fil0" x="3.33" y="2.94" width="1.35" height="5.59" rx="0.68" ry="1.66"/>
 </g>
</svg>
