<?xml version="1.0" encoding="UTF-8"?>
<!DOCTYPE svg PUBLIC "-//W3C//DTD SVG 1.1//EN" "http://www.w3.org/Graphics/SVG/1.1/DTD/svg11.dtd">
<!-- Creator: CorelDRAW -->
<svg xmlns="http://www.w3.org/2000/svg" xml:space="preserve" width="1.81929in" height="2.245in" version="1.1" style="shape-rendering:geometricPrecision; text-rendering:geometricPrecision; image-rendering:optimizeQuality; fill-rule:evenodd; clip-rule:evenodd"
viewBox="0 0 1247.96 1539.98"
 xmlns:xlink="http://www.w3.org/1999/xlink"
 xmlns:xodm="http://www.corel.com/coreldraw/odm/2003">
 <defs>
  <style type="text/css">
   <![CDATA[
    .fil9 {fill:#1E1E1E}
    .fil1 {fill:#281F22}
    .fil10 {fill:#343434}
    .fil7 {fill:#E6AA86}
    .fil6 {fill:#EB9876}
    .fil0 {fill:#F29768}
    .fil4 {fill:#F3BD99}
    .fil3 {fill:#F57F51}
    .fil5 {fill:#F5BD9A}
    .fil8 {fill:#F9CDB0}
    .fil2 {fill:#FCC29D}
   ]]>
  </style>
 </defs>
 <g id="Layer_x0020_1">
  <metadata id="CorelCorpID_0Corel-Layer"/>
  <path class="fil0" d="M761.28 1519.7l0 -181.43 -294.28 0 0 86.47c24.66,66.58 102.72,115.23 195.2,115.23 35.97,0 69.76,-7.37 99.07,-20.28z"/>
  <path class="fil1" d="M741.74 720.5c138.96,-17.86 198.79,-3.76 279.77,74.08 -39.26,-90.85 -87.54,-112.46 -149.07,-134.76 -61.52,-22.3 -120.24,42.86 -96.03,-18.12 -20.23,14.45 -33.36,46.23 -34.68,78.81z"/>
  <path class="fil1" d="M530.42 720.5c-138.96,-17.86 -198.79,-3.76 -279.77,74.08 39.26,-90.85 87.54,-112.46 149.07,-134.76 61.52,-22.3 120.24,42.86 96.03,-18.12 20.23,14.45 33.36,46.23 34.68,78.81z"/>
  <path class="fil2" d="M116.87 791.7l160.56 27.3 -1.71 318.82c-44.28,-6 -165.95,-100.69 -177.95,-200.19 -12,-99.5 8.82,-115.93 19.11,-145.93z"/>
  <path class="fil3" d="M152.25 921.77c11.18,111.79 71.14,119.32 103.19,131.99l0 14.16c-35.03,-19.87 -106.17,-28.64 -103.19,-146.15z"/>
  <g id="_2750816221072">
   <path class="fil4" d="M1156.3 809.52l-152.55 24.86 0 305.97c44.28,-6 138.77,-29.06 153.34,-152.57 14.57,-123.51 -0.79,-132.83 -0.79,-178.26z"/>
   <path class="fil3" d="M1121.21 924.3c-11.18,111.79 -68.57,124.46 -100.61,137.13l0 14.16c35.03,-19.87 103.59,-33.79 100.61,-151.29z"/>
  </g>
  <path class="fil5" d="M663.97 1488.6c-190.73,-5.01 -399.25,-170.71 -458.43,-387.64l0 -764.31 862.46 0 0 786.97c-28.24,153.2 -213.29,369.99 -404.03,364.97z"/>
  <g id="_2750816222416">
   <path class="fil6" d="M578.7 1072.67c50.9,-21.12 102.16,-12.23 144.91,0 -17.79,52.08 -128.97,46.15 -144.91,0z"/>
   <path class="fil7" d="M588.81 1070.3c43.79,-18.18 87.9,-10.52 124.67,0 -15.3,44.81 -110.96,39.7 -124.67,0z"/>
  </g>
  <ellipse class="fil8" cx="336.66" cy="1049.65" rx="36.59" ry="10.1"/>
  <ellipse class="fil8" cx="940.29" cy="1037.12" rx="36.59" ry="10.1"/>
  <path class="fil9" d="M184.69 986.7c-14.65,-89.02 26.8,-118.61 34.14,-177.66 5.52,-44.41 -13.83,-91.59 -12.21,-151.14 2.14,-78.85 43.3,-144.01 94.11,-170.8 12.24,11.81 85.98,37.46 158.33,24.07 17.37,22.88 61.94,33 95.56,23.2 32.24,13.27 57.79,8.12 70.68,-1.98 49.29,23.98 169.57,16.64 291.52,-29.92 45.64,3.77 97.77,38.35 115.57,118.25 12.42,55.73 -8.56,148.48 6.46,200.74 18.66,62.01 29.16,109.65 23.44,183.94 68.75,-102.01 273.2,-471.81 143.5,-544 21.64,-51.64 -4.66,-109.35 -47.02,-117 -1.79,-45.76 -22.67,-90.08 -76.88,-92.85 5.05,-13.61 21.69,-55.58 6.19,-76.79 -12.49,49.32 -51.43,60.49 -77.59,37.03 -47.95,-43.02 -129.43,-146.18 -217.16,-183.3 -95.53,-40.41 -154.64,-30.43 -222.3,-15.05 -94.89,21.57 -111.64,70.75 -143.88,50.32 -34.4,30.43 -89.47,58.04 -105.52,33.77 -88.63,6.07 -107.2,28.59 -147.74,115.03 -69.98,-11.13 -135.06,47.52 -117.11,144.05 -31.75,15.05 -42.55,41.71 -36.45,108.08 -72.13,90.77 63.23,349.11 164.37,522z"/>
  <path class="fil10" d="M72.79 319.57c22.54,98.83 112.55,150.35 213.9,166.03 -46.7,43.68 -127.93,59.55 -219,24.45 97.78,0.96 107.96,-2.87 143.7,-15.39 -157.5,-56.92 -138.6,-144.25 -138.6,-175.09z"/>
  <path class="fil10" d="M1079.5 215.69c-7.05,62.66 -97.16,128.04 -220.17,92.81 -105.41,-30.19 -217.27,-158.25 -343.31,-165.48 -135.35,-7.76 -299.83,75.89 -220.84,331.65 -66.26,-101.72 -105.14,-223.7 -78.28,-281.87 19.36,-41.91 90.69,-29.94 126.38,-51.26 29.34,-17.52 69.54,-61.49 94.28,-64.59 11.86,-1.49 19.91,12.32 17.04,31.55 69.97,-61.05 141.44,-75.56 254.86,-66.04 129.1,10.83 220.75,146.84 287.94,189.76 55,35.14 72.62,-8.37 82.11,-16.53z"/>
  <path class="fil10" d="M205.54 560.62c-48.81,35.56 -3.96,136.2 -24.16,212.06 -17.49,65.71 -16.11,110.23 -8.4,172.8 -81.26,-145.92 -184.39,-364.66 -150.03,-427.23 8.96,77.68 43.7,177.52 82.8,230.71 -11.15,-62.22 -7.92,-141.51 49.07,-183.71 -71.2,106.42 -17.53,214.93 -6.3,268.01 29.68,-48 -18.31,-243.51 57.02,-272.64z"/>
  <path class="fil10" d="M1232.64 621.06c-24.09,64.72 -51.95,120.67 -84.76,165.07 54.17,-107.28 45.01,-200.49 33.31,-293.13 -4.45,91.58 -18.3,180.59 -70.69,259.08 1.91,-154.54 -27.1,-216.28 -64.4,-253.16 22.53,51.98 47.23,127.27 30.42,190.48 -10.61,39.88 -12.99,71.49 -13.02,118.94 17.35,42.13 20.32,95.43 20.36,151.01 74.25,-115.85 119.17,-228.02 148.79,-338.28z"/>
  <path class="fil10" d="M625.29 532.38c-48.35,-94.32 19.31,-145.28 160.46,-115.56 94.59,19.92 236.04,64.37 360.5,-68.84 -14.56,50.1 -59.27,93.3 -135.69,119.1 -59.66,20.14 -148.42,8 -188.64,-2.64 -118.15,-31.25 -178.01,-20.81 -196.63,67.94z"/>
  <path class="fil10" d="M558.17 529.62c-346.78,-34.97 -242.69,-371.57 -39.73,-329.55 156.56,32.41 199.1,183.66 489.38,157.79 -99.29,40.54 -227.06,37.98 -298.18,10.14 -132.97,-52.05 -342.31,-51.56 -151.47,161.62z"/>
 </g>
</svg>
